<svg width="17" height="15" viewBox="0 0 17 15" fill="none" xmlns="http://www.w3.org/2000/svg">
<path d="M1.22056 3.54822H3.29465C3.43846 4.03144 3.76687 4.45997 4.22796 4.76606C4.68905 5.07214 5.25652 5.23832 5.84065 5.23832C6.42478 5.23832 6.99225 5.07214 7.45334 4.76606C7.91443 4.45997 8.24284 4.03144 8.38665 3.54822H15.7408C15.9159 3.54822 16.0838 3.48887 16.2075 3.38322C16.3313 3.27758 16.4009 3.13429 16.4009 2.98488C16.4009 2.83548 16.3313 2.69219 16.2075 2.58654C16.0838 2.4809 15.9159 2.42154 15.7408 2.42154H8.38665C8.24284 1.93832 7.91443 1.50979 7.45334 1.20371C6.99225 0.897623 6.42478 0.731445 5.84065 0.731445C5.25652 0.731445 4.68905 0.897623 4.22796 1.20371C3.76687 1.50979 3.43846 1.93832 3.29465 2.42154H1.22056C1.04551 2.42154 0.877637 2.4809 0.75386 2.58654C0.630084 2.69219 0.560547 2.83548 0.560547 2.98488C0.560547 3.13429 0.630084 3.27758 0.75386 3.38322C0.877637 3.48887 1.04551 3.54822 1.22056 3.54822ZM5.84065 1.85821C6.10173 1.85821 6.35694 1.92429 6.57402 2.04809C6.79109 2.17189 6.96029 2.34785 7.0602 2.55372C7.16011 2.7596 7.18625 2.98613 7.13531 3.20469C7.08438 3.42324 6.95866 3.62399 6.77405 3.78156C6.58944 3.93913 6.35423 4.04644 6.09817 4.08991C5.84211 4.13338 5.5767 4.11107 5.3355 4.02579C5.0943 3.94052 4.88814 3.79611 4.74309 3.61083C4.59804 3.42555 4.52062 3.20772 4.52062 2.98488C4.52062 2.68607 4.6597 2.3995 4.90725 2.1882C5.1548 1.97691 5.49056 1.85821 5.84065 1.85821Z" fill="#748CAD"/>
<path d="M1.22056 8.05506H8.57475C8.71856 8.53828 9.04697 8.96681 9.50806 9.27289C9.96916 9.57898 10.5366 9.74516 11.1208 9.74516C11.7049 9.74516 12.2724 9.57898 12.7334 9.27289C13.1945 8.96681 13.5229 8.53828 13.6668 8.05506H15.7408C15.9159 8.05506 16.0838 7.9957 16.2075 7.89006C16.3313 7.78441 16.4009 7.64112 16.4009 7.49172C16.4009 7.34231 16.3313 7.19902 16.2075 7.09338C16.0838 6.98773 15.9159 6.92838 15.7408 6.92838H13.6668C13.5229 6.44516 13.1945 6.01663 12.7334 5.71054C12.2724 5.40446 11.7049 5.23828 11.1208 5.23828C10.5366 5.23828 9.96916 5.40446 9.50806 5.71054C9.04697 6.01663 8.71856 6.44516 8.57475 6.92838H1.22056C1.04551 6.92838 0.877637 6.98773 0.75386 7.09338C0.630084 7.19902 0.560547 7.34231 0.560547 7.49172C0.560547 7.64112 0.630084 7.78441 0.75386 7.89006C0.877637 7.9957 1.04551 8.05506 1.22056 8.05506ZM11.1208 6.36504C11.3818 6.36504 11.637 6.43112 11.8541 6.55492C12.0712 6.67872 12.2404 6.85469 12.3403 7.06056C12.4402 7.26643 12.4663 7.49297 12.4154 7.71152C12.3645 7.93007 12.2388 8.13083 12.0542 8.2884C11.8695 8.44597 11.6343 8.55327 11.3783 8.59674C11.1222 8.64022 10.8568 8.61791 10.6156 8.53263C10.3744 8.44735 10.1682 8.30295 10.0232 8.11766C9.87815 7.93238 9.80073 7.71455 9.80073 7.49172C9.80073 7.19291 9.9398 6.90633 10.1874 6.69504C10.4349 6.48375 10.7707 6.36504 11.1208 6.36504Z" fill="#748CAD"/>
<path d="M1.22056 12.5619H3.29465C3.43846 13.0451 3.76687 13.4736 4.22796 13.7797C4.68905 14.0858 5.25652 14.252 5.84065 14.252C6.42478 14.252 6.99225 14.0858 7.45334 13.7797C7.91443 13.4736 8.24284 13.0451 8.38665 12.5619H15.7408C15.9159 12.5619 16.0838 12.5025 16.2075 12.3969C16.3313 12.2912 16.4009 12.148 16.4009 11.9986C16.4009 11.8491 16.3313 11.7059 16.2075 11.6002C16.0838 11.4946 15.9159 11.4352 15.7408 11.4352H8.38665C8.24284 10.952 7.91443 10.5235 7.45334 10.2174C6.99225 9.9113 6.42478 9.74512 5.84065 9.74512C5.25652 9.74512 4.68905 9.9113 4.22796 10.2174C3.76687 10.5235 3.43846 10.952 3.29465 11.4352H1.22056C1.04551 11.4352 0.877637 11.4946 0.75386 11.6002C0.630084 11.7059 0.560547 11.8491 0.560547 11.9986C0.560547 12.148 0.630084 12.2912 0.75386 12.3969C0.877637 12.5025 1.04551 12.5619 1.22056 12.5619ZM5.84065 10.8719C6.10173 10.8719 6.35694 10.938 6.57402 11.0618C6.79109 11.1856 6.96029 11.3615 7.0602 11.5674C7.16011 11.7733 7.18625 11.9998 7.13531 12.2184C7.08438 12.4369 6.95866 12.6377 6.77405 12.7952C6.58944 12.9528 6.35423 13.0601 6.09817 13.1036C5.84211 13.1471 5.5767 13.1247 5.3355 13.0395C5.0943 12.9542 4.88814 12.8098 4.74309 12.6245C4.59804 12.4392 4.52062 12.2214 4.52062 11.9986C4.52062 11.6997 4.6597 11.4132 4.90725 11.2019C5.1548 10.9906 5.49056 10.8719 5.84065 10.8719Z" fill="#748CAD"/>
</svg>
