<svg width="10" height="10" viewBox="0 0 10 10" fill="none" xmlns="http://www.w3.org/2000/svg">
<path fill-rule="evenodd" clip-rule="evenodd" d="M9.8717 2.80788C9.69862 2.99261 9.41427 2.99261 9.24119 2.80788L8.09145 1.6133V9.55665C8.09145 9.80296 7.89365 10 7.64639 10C7.39914 10 7.20133 9.80296 7.20133 9.55665V1.6133L6.05159 2.80788C5.87851 2.99261 5.59417 2.99261 5.42109 2.80788C5.24801 2.62315 5.24801 2.32759 5.42109 2.14286L7.28787 0.184729C7.28787 0.184729 7.28787 0.184729 7.30023 0.172414L7.32496 0.147783C7.39914 0.0615765 7.5104 0.0123153 7.63403 0.0123153C7.75766 0.0123153 7.86892 0.0615765 7.95546 0.147783L9.85933 2.14286C10.0448 2.32759 10.0448 2.62315 9.8717 2.80788ZM2.70127 9.81527L2.66418 9.85222C2.59001 9.93842 2.47874 9.98768 2.35511 9.98768C2.23149 9.98768 2.12022 9.93842 2.03368 9.85222L0.129809 7.85714C-0.0432698 7.67241 -0.0432698 7.37685 0.129809 7.19212C0.302889 7.00739 0.587233 7.00739 0.760312 7.19212L1.91005 8.3867V0.44335C1.91005 0.197044 2.10786 0 2.35511 0C2.60237 0 2.80017 0.197044 2.80017 0.44335V8.3867L3.94991 7.19212C4.12299 7.00739 4.40734 7.00739 4.58042 7.19212C4.7535 7.37685 4.7535 7.67241 4.58042 7.85714L2.70127 9.81527Z" fill="#748CAD"/>
</svg>
